<?xml version="1.0" encoding="UTF-8" standalone="no"?>
<svg width="23px" height="24px" viewBox="0 0 23 24" version="1.1" xmlns="http://www.w3.org/2000/svg" xmlns:xlink="http://www.w3.org/1999/xlink">
    <!-- Generator: Sketch 3.8.3 (29802) - http://www.bohemiancoding.com/sketch -->
    <title>github</title>
    <desc>Created with Sketch.</desc>
    <defs></defs>
    <g id="Welcome" stroke="none" stroke-width="1" fill="none" fill-rule="evenodd">
        <g id="Header-W/Footer" transform="translate(-174.000000, -49.000000)">
            <g id="SocialMedia" transform="translate(12.000000, 2.000000)">
                <g id="github" transform="translate(162.000000, 47.000000)">
                    <rect id="Rectangle-2" fill="#FFFFFF" x="0" y="0" width="22.6849315" height="24" rx="4"></rect>
                    <path d="M4.00339166,0 C1.79237951,0 1.83485131e-08,1.78429328 1.83485131e-08,3.99005301 L1.83485131e-08,20.009947 C1.83485131e-08,22.2135924 1.78518079,24 3.99453116,24 L7.56164385,24 C8.19178084,24 8.53171295,23.0532811 8.53171295,22.7373334 C8.53171295,22.4520892 8.5211947,21.5097928 8.51631114,20.5102494 C5.36079999,21.2338586 4.69494967,19.0988847 4.69494967,19.0988847 C4.17898595,17.7162425 3.43556262,17.3485943 3.43556262,17.3485943 C2.40645282,16.606167 3.51313563,16.6214196 3.51313563,16.6214196 C4.65212493,16.7058044 5.2518597,17.8541105 5.2518597,17.8541105 C6.26350178,19.6828431 7.90530668,19.1541508 8.55256197,18.8485036 C8.6543647,18.0753729 8.94831573,17.547671 9.27269481,17.2489569 C6.75335704,16.9464792 4.10498171,15.9207884 4.10498171,11.3372701 C4.10498171,10.0312872 4.54806821,8.96419643 5.27364795,8.12648957 C5.15587975,7.82520033 4.76763912,6.60855443 5.38352714,4.96087273 C5.38352714,4.96087273 6.33600314,4.63937873 8.50353889,6.1870268 C9.40830659,5.92198737 10.3786262,5.7890715 11.3425596,5.7845155 C12.3064931,5.7890715 13.2775641,5.92198737 14.1840222,6.1870268 C16.3489284,4.63937873 17.3000896,4.96087273 17.3000896,4.96087273 C17.9174802,6.60855443 17.5290518,7.82520033 17.4112836,8.12648957 C18.138554,8.96419643 18.578635,10.0312872 18.578635,11.3372701 C18.578635,15.9316832 15.925188,16.9433098 13.3994645,17.2394488 C13.8063001,17.6106625 14.1688082,18.3386296 14.1688082,19.4546477 C14.1688082,21.0551848 14.1556603,22.3433398 14.1556603,22.7373334 C14.1556603,23.0556581 14.1556609,24 15.1232877,24 L18.6840242,24 C20.8936643,24 22.6849315,22.2157067 22.6849315,20.009947 L22.6849315,3.99005301 C22.6849315,1.78640758 20.8859215,0 18.6815399,0 L4.00339166,0 Z M4.29600301,17.1748727 C4.27102186,17.2342986 4.18236695,17.2521263 4.10160103,17.2113206 C4.01933223,17.1722976 3.97312649,17.0912803 3.99979799,17.0316563 C4.02421579,16.9704476 4.11305849,16.9534122 4.19513919,16.9944161 C4.27759577,17.0334391 4.32455295,17.1152487 4.29600301,17.1748727 L4.29600301,17.1748727 L4.29600301,17.1748727 Z M4.75543022,17.715252 C4.70133579,17.7681411 4.59558873,17.7435784 4.52383849,17.659986 C4.44964616,17.5765916 4.43574692,17.4650691 4.49059278,17.4113877 C4.54637755,17.3584987 4.64893171,17.3832594 4.72331182,17.4666538 C4.79750384,17.5510385 4.81196642,17.6617687 4.75543022,17.715252 L4.75543022,17.715252 L4.75543022,17.715252 Z M5.20264884,18.4041961 C5.1331526,18.4551043 5.01951653,18.4073655 4.94926886,18.3009932 C4.87977263,18.1946208 4.87977263,18.0670533 4.95077142,18.015947 C5.02120688,17.9648407 5.1331526,18.0107968 5.20433918,18.1163767 C5.27364795,18.2245319 5.27364795,18.3520994 5.20264884,18.4041961 L5.20264884,18.4041961 L5.20264884,18.4041961 Z M5.81534395,19.069766 C5.75317274,19.1420675 5.62075418,19.1226551 5.5238347,19.0240081 C5.42466153,18.9275401 5.39705082,18.7906624 5.45940981,18.718361 C5.52233214,18.6458614 5.65550214,18.6662643 5.75317274,18.7641189 C5.85159478,18.8603888 5.88164727,18.9982569 5.81534395,19.069766 L5.81534395,19.069766 L5.81534395,19.069766 Z M6.66057,19.4562324 C6.63314707,19.5499272 6.50561207,19.5925157 6.37713753,19.5527004 C6.2488511,19.5116965 6.16489196,19.4019567 6.19081233,19.3072715 C6.21748382,19.2129824 6.34558248,19.1686111 6.47499592,19.2111996 C6.60309489,19.2520054 6.68724181,19.3609529 6.66057,19.4562324 L6.66057,19.4562324 L6.66057,19.4562324 Z M7.58881629,19.5279396 C7.59200951,19.6265866 7.48306922,19.7083962 7.34820856,19.7101789 C7.21259678,19.7133483 7.10290505,19.6335196 7.10140249,19.5364573 C7.10140249,19.4368199 7.207901,19.3558026 7.34351278,19.3534256 C7.47837344,19.3506524 7.58881629,19.4298869 7.58881629,19.5279396 L7.58881629,19.5279396 L7.58881629,19.5279396 Z M8.45263737,19.372838 C8.46879062,19.4691079 8.37506436,19.567953 8.24114292,19.5942985 C8.10947548,19.6196535 7.98757516,19.5602276 7.97085858,19.4647501 C7.95451755,19.3661031 8.04993415,19.267258 8.18141381,19.2417049 C8.31552303,19.2171422 8.43554522,19.2749834 8.45263737,19.372838 L8.45263737,19.372838 L8.45263737,19.372838 Z" id="Fill-4" fill="#161614"></path>
                </g>
            </g>
        </g>
    </g>
</svg>