
<svg width="23px" height="24px" viewBox="42 47 23 24" version="1.1" xmlns="http://www.w3.org/2000/svg" xmlns:xlink="http://www.w3.org/1999/xlink">
    <!-- Generator: Sketch 3.8.3 (29802) - http://www.bohemiancoding.com/sketch -->
    <desc>Created with Sketch.</desc>
    <defs></defs>
    <g id="instagram" stroke="none" stroke-width="1" fill="none" fill-rule="evenodd" transform="translate(42.000000, 47.000000)">
        <rect id="Rectangle-2" fill="#265D89" x="0" y="0" width="23" height="24" rx="4"></rect>
        <path d="M6.51373132,5 L16.4862687,5 C17.4334586,5 18.2083333,5.8278081 18.2083333,6.83970263 L18.2083333,17.4936307 C18.2083333,18.5055252 17.4334586,19.3333333 16.4862687,19.3333333 L6.51373132,19.3333333 C5.56654139,19.3333333 4.79166667,18.5055252 4.79166667,17.4936307 L4.79166667,6.83955743 C4.79153077,5.8278081 5.56654139,5 6.51373132,5 L6.51373132,5 L6.51373132,5 Z M14.5651175,6.59246353 C14.2328536,6.59246353 13.9611989,6.88282067 13.9611989,7.2377822 L13.9611989,8.78233683 C13.9611989,9.1372984 14.2328536,9.4276555 14.5651175,9.4276555 L16.0815726,9.4276555 C16.4137006,9.4276555 16.6854911,9.1372984 16.6854911,8.78233683 L16.6854911,7.2377822 C16.6854911,6.88282067 16.4137006,6.59246353 16.0815726,6.59246353 L14.5651175,6.59246353 L14.5651175,6.59246353 Z M16.6920141,11.0613498 L15.5110843,11.0613498 C15.6227902,11.4511542 15.6832636,11.8637516 15.6832636,12.2911573 C15.6832636,14.6752795 13.8160628,16.6078964 11.5129101,16.6078964 C9.20975727,16.6078964 7.34269237,14.6752795 7.34269237,12.2911573 C7.34269237,11.8637516 7.40302987,11.4511542 7.51473576,11.0613498 L6.2825735,11.0613498 L6.2825735,17.1160213 C6.2825735,17.4294618 6.52256451,17.6858471 6.81596238,17.6858471 L16.158897,17.6858471 C16.452159,17.6858471 16.6922859,17.4294618 16.6922859,17.1160213 L16.6922859,11.0613498 L16.6920141,11.0613498 L16.6920141,11.0613498 Z M11.5126382,9.34621033 C10.0245852,9.34621033 8.81810717,10.5950362 8.81810717,12.1353807 C8.81810717,13.6758703 10.0245852,14.9246962 11.5126382,14.9246962 C13.0008272,14.9246962 14.2073052,13.6758703 14.2073052,12.1353807 C14.2073052,10.5950362 13.0008272,9.34621033 11.5126382,9.34621033 L11.5126382,9.34621033 L11.5126382,9.34621033 Z" id="Shape" fill="#FFFFFF"></path>
    </g>
</svg>