<?xml version="1.0" encoding="UTF-8" standalone="no"?>
<svg width="23px" height="24px" viewBox="0 0 23 24" version="1.1" xmlns="http://www.w3.org/2000/svg" xmlns:xlink="http://www.w3.org/1999/xlink">
    <!-- Generator: Sketch 3.8.3 (29802) - http://www.bohemiancoding.com/sketch -->
    <title>linkedin</title>
    <desc>Created with Sketch.</desc>
    <defs></defs>
    <g id="Welcome" stroke="none" stroke-width="1" fill="none" fill-rule="evenodd">
        <g id="Header-W/Footer" transform="translate(-137.000000, -49.000000)">
            <g id="SocialMedia" transform="translate(12.000000, 2.000000)">
                <g id="linkedin" transform="translate(125.000000, 47.000000)">
                    <rect id="Rectangle-2" fill="#117EB8" x="0" y="0" width="23" height="24" rx="4"></rect>
                    <path d="M4.19711041,9.28254497 L7.27117496,9.28254497 L7.27117496,19.6035033 L4.19711041,19.6035033 L4.19711041,9.28254497 Z M5.73479035,4.15217813 C6.71750082,4.15217813 7.51613297,4.98556238 7.51613297,6.01148555 C7.51613297,7.03830986 6.71750082,7.87169407 5.73479035,7.87169407 C4.74948926,7.87169407 3.95200847,7.03830986 3.95200847,6.01148555 C3.9521524,4.98556238 4.74963316,4.15217813 5.73479035,4.15217813 Z M9.1993197,9.28254497 L12.147595,9.28254497 L12.147595,10.6927951 L12.1887572,10.6927951 C12.5992273,9.88133806 13.6017993,9.02587642 15.0973096,9.02587642 C18.2100896,9.02587642 18.7847766,11.1636294 18.7847766,13.9423778 L18.7847766,19.6035033 L15.7128709,19.6035033 L15.7128709,14.5844246 C15.7128709,13.3875893 15.691858,11.8480287 14.1154627,11.8480287 C12.5160395,11.8480287 12.2705058,13.1517967 12.2705058,14.4979172 L12.2705058,19.6036535 L9.19917577,19.6036535 L9.19917577,9.28254497 L9.1993197,9.28254497 Z" id="Shape" fill="#FFFFFF"></path>
                </g>
            </g>
        </g>
    </g>
</svg>