
<svg width="23px" height="24px" viewBox="0 48 28 24" version="1.1" xmlns="http://www.w3.org/2000/svg" xmlns:xlink="http://www.w3.org/1999/xlink">
    <!-- Generator: Sketch 3.8.3 (29802) - http://www.bohemiancoding.com/sketch -->
    <desc>Created with Sketch.</desc>
    <defs></defs>
    <path d="M3.18847715,61.9947985 C3.5162051,62.0549335 3.85382594,62.0863371 4.19869792,62.0863371 C4.80588427,62.0863371 5.39059377,61.9889934 5.93840597,61.8088927 C3.2529733,61.3797333 1.19962798,59.0278211 1.19962798,56.1907977 C1.19962798,56.1467977 1.20012188,56.1029143 1.20110439,56.059153 C1.99624724,56.5158741 2.91225239,56.7822108 3.8885381,56.7968834 C2.27564952,55.796954 1.19962798,53.9974429 1.19962798,51.9437174 C1.19962798,50.8774256 1.48968829,49.8796617 1.99434936,49.0267548 C4.85390542,52.4862312 9.04913808,54.77719 13.7780393,55.0883853 C13.691408,54.6860857 13.6457683,54.2683018 13.6457683,53.8397354 C13.6457683,50.6145384 16.2305221,48 19.4189779,48 C21.0847508,48 22.5857479,48.713618 23.6394799,49.8551095 C24.9469449,49.6450195 26.1621292,49.1547041 27.2229908,48.44692 C26.831655,49.7983599 25.9410638,50.934049 24.7669042,51.6358155 C25.9162441,51.5276963 27.0021273,51.2119316 28,50.7379676 C27.2851445,51.9213638 26.3248942,52.9365565 25.1908158,53.7111542 C25.1917287,53.7539031 25.1921875,53.796765 25.1921875,53.8397354 C25.1921875,53.9536808 25.1897591,54.3953849 25.1897591,54.5046435 C25.1897591,63.6147778 17.8886687,71 8.88231627,71 C5.60610704,71 2.55554841,70.0227426 0,68.3406914 C0.454230645,68.3940078 0.916271774,68.4214155 1.3846414,68.4214155 C4.09764049,68.4214155 6.59830412,67.501824 8.5986097,65.9539824 C6.03754584,65.9542138 3.91177724,64.2910189 3.18847715,61.9947985 Z" id="final-shape" stroke="none" fill="#00BDF5" fill-rule="evenodd"></path>
</svg>